<svg width="1223" height="971" viewBox="0 0 1223 971" fill="none" xmlns="http://www.w3.org/2000/svg">
<path d="M892.288 363.889C854.129 317.964 786.798 306.125 732.191 335.691C710.966 347.183 693.329 363.082 677.783 381.2C642.133 422.75 607.268 464.977 571.403 506.339C548.669 532.557 525.166 558.151 501.097 583.149C490.076 594.596 476.863 603.932 463.95 614.81C459.875 609.163 456.503 604.777 453.431 600.188C405.454 528.525 394.863 451.927 424.219 370.579C434.803 341.251 451.941 315.272 470.169 290.176C524.513 215.353 581.383 142.554 645.998 76.1943C677.403 43.9412 713.717 19.0505 758.029 7.7962C823.566 -8.84863 885.621 1.97589 944.962 32.4825C994.616 58.0089 1037.31 93.0472 1077.52 131.184C1110.31 162.281 1140.33 195.913 1167.29 232.321C1227.81 314.039 1237.24 402.649 1204.19 497.206C1177.58 573.352 1137.87 642.732 1093.52 709.658C1085.71 721.45 1077.58 733.039 1068.78 744.724C1068.27 743.242 1068.48 741.728 1068.91 740.275C1074.71 720.423 1083.25 700.916 1085.76 680.66C1090.29 644.108 1083.16 608.747 1067.24 575.07C1046.87 531.993 1018.94 494.123 987.698 458.747C963.361 431.191 937.11 405.311 911.375 379.014C905.742 373.259 898.688 368.894 892.288 363.889Z" fill="#1E40AF"/>
<path d="M331.067 605.855C346.745 623.001 364.511 637.398 386.57 645.395C437.145 663.73 483.746 654.673 522.98 619.185C549.379 595.306 572.027 567.202 595.731 540.438C639.636 490.865 682.825 440.656 726.911 391.247C737.658 379.202 750.725 369.228 763.37 357.715C766.204 361.288 768.328 363.605 770.051 366.19C828.753 454.265 836.773 545.044 783.345 638.388C753.54 690.46 715.672 736.948 678.737 783.956C653.503 816.07 627.954 848.086 600.373 878.154C581.735 898.474 560.694 917.242 538.308 933.338C489.561 968.39 434.055 976.028 375.625 967.406C321.333 959.394 274.314 934.933 230.941 902.718C159.284 849.497 95.1911 788.613 45.1585 714.145C11.4698 664.003 -4.42358 608.687 1.06403 548C4.80689 506.607 17.5466 467.621 33.8963 429.703C65.3333 356.794 107.026 289.807 152.838 225.291C150.609 234.208 148.325 242.937 145.254 251.38C135.82 277.317 135.236 304.062 138.521 330.91C142.027 359.562 153.268 385.723 167.174 410.776C186.369 445.358 210.257 476.588 235.915 506.533C248.713 521.468 261.113 536.786 274.587 551.09C291.736 569.296 309.776 586.666 327.501 604.327C328.352 605.175 329.863 605.361 331.067 605.855Z" fill="#1E40AF"/>
<path d="M331.099 605.307C329.844 605.374 328.333 605.188 327.482 604.34C309.757 586.679 291.717 569.309 274.567 551.102C261.094 536.799 248.693 521.481 235.896 506.546C210.237 476.6 186.349 445.371 167.154 410.789C153.249 385.735 142.008 359.575 138.502 330.922C135.216 304.075 135.8 277.329 145.234 251.392C148.305 242.95 150.59 234.221 153.244 224.981C187.441 175.968 219.127 125.506 264.516 86.2482C333.565 26.527 434.893 15.2043 515.656 58.0484C529.066 65.1626 541.731 73.7042 554.591 81.8239C559.294 84.7938 563.562 88.4543 568.467 92.1288C555.346 109.221 542.359 125.823 529.706 142.674C473.73 217.219 417.722 291.741 362.028 366.497C349.13 383.81 335.209 400.892 325.565 420.002C294.204 482.149 294.966 544.204 331.099 605.307Z" fill="#60A5FA"/>
<path d="M892.397 364.4C898.64 368.878 905.694 373.242 911.327 378.998C937.062 405.295 963.313 431.175 987.65 458.731C1018.89 494.106 1046.82 531.976 1067.19 575.054C1083.11 608.731 1090.24 644.091 1085.72 680.644C1083.21 700.9 1074.66 720.407 1068.86 740.259C1068.43 741.712 1068.22 743.225 1068.31 745.049C1043.86 782.773 1018.43 819.955 985.466 850.665C916.106 915.285 835.576 928.033 747.697 896.572C725.303 888.555 704.719 875.46 683.379 864.55C680.364 863.008 677.784 860.616 674.547 858.291C687.517 840.989 700.269 824.241 712.747 807.291C769.094 730.749 825.42 654.191 881.642 577.559C919.148 526.437 929.22 469.817 912.792 409.01C908.634 393.617 899.436 379.585 892.397 364.4Z" fill="#60A5FA"/>
</svg>
